<svg width="128" height="32" viewBox="0 0 128 32" fill="none" xmlns="http://www.w3.org/2000/svg">
  <rect x="0" y="0" width="32" height="32" rx="8" fill="#F9426C"/>
  <path d="M21.5 11.5c0-1.7-1.6-3-3.9-3-2.6 0-4.4 1.4-4.4 3.4 0 4.3 8.2 2.3 8.2 5.2 0 1-1 1.6-2.4 1.6-1.6 0-2.7-.7-2.8-1.9h-3c.1 2.6 2.3 4.2 5.7 4.2 3 0 5.1-1.5 5.1-3.9 0-4.4-8.2-2.5-8.2-5.2 0-.9.9-1.3 1.9-1.3 1.2 0 2 .5 2.1 1.6h2.7z" fill="#fff"/>
  <text x="40" y="22" textLength="84" lengthAdjust="spacingAndGlyphs" font-family="Helvetica, Arial, sans-serif" font-size="19" font-weight="700" letter-spacing="-0.3" fill="#F9426C">Sellsy</text>
</svg>
